REM DIRINDEX 1\4,1\2\5,1\2\6,1\3\7,1\3\8
REM DIRNAME cjc124,folder01,folder02,folder03,folder04,folder05,folder06,folder07
TITLE ""
FILE "078_Day39_Check3_Sentences.mp3" MP3
  TRACK 01 AUDIO
    TITLE "0:"
    INDEX 01 00:00:00
  TRACK 02 AUDIO
    TITLE "4:cjc124_2544"
    INDEX 01 00:00:25
  TRACK 03 AUDIO
    TITLE "0:"
    INDEX 01 00:01:73
  TRACK 04 AUDIO
    TITLE "7:cjc124_2545"
    INDEX 01 00:02:49
  TRACK 05 AUDIO
    TITLE "0:"
    INDEX 01 00:05:22
  TRACK 06 AUDIO
    TITLE "8:cjc124_2546"
    INDEX 01 00:05:42
  TRACK 07 AUDIO
    TITLE "0:"
    INDEX 01 00:07:58
  TRACK 08 AUDIO
    TITLE "7:cjc124_2547"
    INDEX 01 00:08:21
  TRACK 09 AUDIO
    TITLE "0:"
    INDEX 01 00:10:37
  TRACK 10 AUDIO
    TITLE "8:cjc124_2548"
    INDEX 01 00:10:55
  TRACK 11 AUDIO
    TITLE "0:"
    INDEX 01 00:13:55
  TRACK 12 AUDIO
    TITLE "7:cjc124_2549"
    INDEX 01 00:14:19
  TRACK 13 AUDIO
    TITLE "0:"
    INDEX 01 00:16:65
  TRACK 14 AUDIO
    TITLE "8:cjc124_2550"
    INDEX 01 00:17:10
  TRACK 15 AUDIO
    TITLE "0:"
    INDEX 01 00:20:02
  TRACK 16 AUDIO
    TITLE "7:cjc124_2551"
    INDEX 01 00:20:37
  TRACK 17 AUDIO
    TITLE "0:"
    INDEX 01 00:23:28
  TRACK 18 AUDIO
    TITLE "8:cjc124_2552"
    INDEX 01 00:23:44
  TRACK 19 AUDIO
    TITLE "0:"
    INDEX 01 00:26:17
  TRACK 20 AUDIO
    TITLE "7:cjc124_2553"
    INDEX 01 00:26:56
  TRACK 21 AUDIO
    TITLE "0:"
    INDEX 01 00:29:19
  TRACK 22 AUDIO
    TITLE "8:cjc124_2554"
    INDEX 01 00:29:38
  TRACK 23 AUDIO
    TITLE "0:"
    INDEX 01 00:31:49
  TRACK 24 AUDIO
    TITLE "7:cjc124_2555"
    INDEX 01 00:32:11
  TRACK 25 AUDIO
    TITLE "0:"
    INDEX 01 00:34:28
  TRACK 26 AUDIO
    TITLE "8:cjc124_2556"
    INDEX 01 00:34:42
  TRACK 27 AUDIO
    TITLE "0:"
    INDEX 01 00:37:01
  TRACK 28 AUDIO
    TITLE "7:cjc124_2557"
    INDEX 01 00:37:40
  TRACK 29 AUDIO
    TITLE "0:"
    INDEX 01 00:40:52
  TRACK 30 AUDIO
    TITLE "8:cjc124_2558"
    INDEX 01 00:40:68
  TRACK 31 AUDIO
    TITLE "0:"
    INDEX 01 00:42:74
  TRACK 32 AUDIO
    TITLE "7:cjc124_2559"
    INDEX 01 00:43:37
  TRACK 33 AUDIO
    TITLE "0:"
    INDEX 01 00:46:31
  TRACK 34 AUDIO
    TITLE "8:cjc124_2560"
    INDEX 01 00:46:49
  TRACK 35 AUDIO
    TITLE "0:"
    INDEX 01 00:49:31
  TRACK 36 AUDIO
    TITLE "7:cjc124_2561"
    INDEX 01 00:49:70
  TRACK 37 AUDIO
    TITLE "0:"
    INDEX 01 00:52:14
  TRACK 38 AUDIO
    TITLE "8:cjc124_2562"
    INDEX 01 00:52:32
  TRACK 39 AUDIO
    TITLE "0:"
    INDEX 01 00:54:62
  TRACK 40 AUDIO
    TITLE "7:cjc124_2563"
    INDEX 01 00:55:22
  TRACK 41 AUDIO
    TITLE "0:"
    INDEX 01 00:57:25
  TRACK 42 AUDIO
    TITLE "8:cjc124_2564"
    INDEX 01 00:57:50
  TRACK 43 AUDIO
    TITLE "0:"
    INDEX 01 00:59:43
  TRACK 44 AUDIO
    TITLE "7:cjc124_2565"
    INDEX 01 01:00:06
  TRACK 45 AUDIO
    TITLE "0:"
    INDEX 01 01:03:37
  TRACK 46 AUDIO
    TITLE "8:cjc124_2566"
    INDEX 01 01:03:57
  TRACK 47 AUDIO
    TITLE "0:"
    INDEX 01 01:07:02
  TRACK 48 AUDIO
    TITLE "7:cjc124_2567"
    INDEX 01 01:07:45
  TRACK 49 AUDIO
    TITLE "0:"
    INDEX 01 01:11:37
  TRACK 50 AUDIO
    TITLE "8:cjc124_2568"
    INDEX 01 01:11:51
  TRACK 51 AUDIO
    TITLE "0:"
    INDEX 01 01:15:13
  TRACK 52 AUDIO
    TITLE "7:cjc124_2569"
    INDEX 01 01:15:50
  TRACK 53 AUDIO
    TITLE "0:"
    INDEX 01 01:17:71
  TRACK 54 AUDIO
    TITLE "8:cjc124_2570"
    INDEX 01 01:18:13
  TRACK 55 AUDIO
    TITLE "0:"
    INDEX 01 01:20:44
  TRACK 56 AUDIO
    TITLE "7:cjc124_2571"
    INDEX 01 01:21:10
  TRACK 57 AUDIO
    TITLE "0:"
    INDEX 01 01:24:28
  TRACK 58 AUDIO
    TITLE "8:cjc124_2572"
    INDEX 01 01:24:43
  TRACK 59 AUDIO
    TITLE "0:"
    INDEX 01 01:27:73
  TRACK 60 AUDIO
    TITLE "7:cjc124_2573"
    INDEX 01 01:28:33
  TRACK 61 AUDIO
    TITLE "0:"
    INDEX 01 01:30:46
  TRACK 62 AUDIO
    TITLE "8:cjc124_2574"
    INDEX 01 01:30:66
  TRACK 63 AUDIO
    TITLE "0:"
    INDEX 01 01:33:40
  TRACK 64 AUDIO
    TITLE "7:cjc124_2575"
    INDEX 01 01:34:03
  TRACK 65 AUDIO
    TITLE "0:"
    INDEX 01 01:37:54
  TRACK 66 AUDIO
    TITLE "8:cjc124_2576"
    INDEX 01 01:38:02
  TRACK 67 AUDIO
    TITLE "0:"
    INDEX 01 01:41:44
